<?xml version="1.0" standalone="no"?>
<svg xmlns:xlink="http://www.w3.org/1999/xlink" id="wave" style="transform:rotate(0deg); transition: 0.3s" viewBox="0 0 1440 490" version="1.1" xmlns="http://www.w3.org/2000/svg"><defs><linearGradient id="sw-gradient-0" x1="0" x2="0" y1="1" y2="0"><stop stop-color="rgba(243, 106, 62, 1)" offset="0%"/><stop stop-color="rgba(255, 179, 11, 1)" offset="100%"/></linearGradient></defs><path style="transform:translate(0, 0px); opacity:1" fill="url(#sw-gradient-0)" d="M0,147L60,122.5C120,98,240,49,360,57.2C480,65,600,131,720,187.8C840,245,960,294,1080,277.7C1200,261,1320,180,1440,130.7C1560,82,1680,65,1800,49C1920,33,2040,16,2160,81.7C2280,147,2400,294,2520,343C2640,392,2760,343,2880,269.5C3000,196,3120,98,3240,57.2C3360,16,3480,33,3600,49C3720,65,3840,82,3960,81.7C4080,82,4200,65,4320,57.2C4440,49,4560,49,4680,57.2C4800,65,4920,82,5040,122.5C5160,163,5280,229,5400,261.3C5520,294,5640,294,5760,318.5C5880,343,6000,392,6120,383.8C6240,376,6360,310,6480,253.2C6600,196,6720,147,6840,171.5C6960,196,7080,294,7200,334.8C7320,376,7440,359,7560,359.3C7680,359,7800,376,7920,334.8C8040,294,8160,196,8280,196C8400,196,8520,294,8580,343L8640,392L8640,490L8580,490C8520,490,8400,490,8280,490C8160,490,8040,490,7920,490C7800,490,7680,490,7560,490C7440,490,7320,490,7200,490C7080,490,6960,490,6840,490C6720,490,6600,490,6480,490C6360,490,6240,490,6120,490C6000,490,5880,490,5760,490C5640,490,5520,490,5400,490C5280,490,5160,490,5040,490C4920,490,4800,490,4680,490C4560,490,4440,490,4320,490C4200,490,4080,490,3960,490C3840,490,3720,490,3600,490C3480,490,3360,490,3240,490C3120,490,3000,490,2880,490C2760,490,2640,490,2520,490C2400,490,2280,490,2160,490C2040,490,1920,490,1800,490C1680,490,1560,490,1440,490C1320,490,1200,490,1080,490C960,490,840,490,720,490C600,490,480,490,360,490C240,490,120,490,60,490L0,490Z"/></svg>