<?xml version="1.0" encoding="utf-8"?><svg xmlns="http://www.w3.org/2000/svg" xmlns:xlink="http://www.w3.org/1999/xlink" width="1889" height="970" preserveAspectRatio="xMidYMid" viewBox="0 0 1889 970" style="z-index:1;margin-right:-2px;display:block;animation-play-state:paused" ><g transform="translate(944.5,485) scale(-1,-1) translate(-944.5,-485)" style="transform:matrix(-1, 0, 0, -1, 1889, 970);animation-play-state:paused" ><linearGradient id="lg-0.37067731919330194" x1="0" x2="1" y1="0" y2="0" style="animation-play-state:paused" ><stop stop-color="#0051a2" offset="0" style="animation-play-state:paused" ></stop>

  
<stop stop-color="#1b75be" offset="1" style="animation-play-state:paused" ></stop></linearGradient>
<path d="M 0 0 L 0 782.936 Q 236.125 523.035 472.25 478.525 T 944.5 447.013 T 1416.75 141.593 T 1889 91.6161 L 1889 0 Z" fill="url(#lg-0.37067731919330194)" opacity="0.4" style="opacity:0.4;animation-play-state:paused" ></path>
<path d="M 0 0 L 0 717.683 Q 236.125 554.346 472.25 523.635 T 944.5 375.017 T 1416.75 205.559 T 1889 18.23 L 1889 0 Z" fill="url(#lg-0.37067731919330194)" opacity="0.4" style="opacity:0.4;animation-play-state:paused" ></path>
<path d="M 0 0 L 0 664.936 Q 236.125 501.833 472.25 465.679 T 944.5 384.958 T 1416.75 167.11 T 1889 60.3918 L 1889 0 Z" fill="url(#lg-0.37067731919330194)" opacity="0.4" style="opacity:0.4;animation-play-state:paused" ></path>
<path d="M 0 0 L 0 717.247 Q 236.125 540.034 472.25 501.443 T 944.5 326.855 T 1416.75 101.257 T 1889 71.9568 L 1889 0 Z" fill="url(#lg-0.37067731919330194)" opacity="0.4" style="opacity:0.4;animation-play-state:paused" ></path>
<path d="M 0 0 L 0 687.19 Q 236.125 505.352 472.25 468.044 T 944.5 322.799 T 1416.75 172.893 T 1889 -43.8447 L 1889 0 Z" fill="url(#lg-0.37067731919330194)" opacity="0.4" style="opacity:0.4;animation-play-state:paused" ></path></g></svg>