<?xml version="1.0" encoding="utf-8"?><svg xmlns="http://www.w3.org/2000/svg" xmlns:xlink="http://www.w3.org/1999/xlink" width="1889" height="970" preserveAspectRatio="xMidYMid" viewBox="0 0 1889 970" style="z-index:1;margin-right:-2px;display:block;background-repeat-y:initial;background-repeat-x:initial;background-color:rgb(241, 242, 243);animation-play-state:paused" ><g transform="translate(944.5,485) scale(-1,-1) translate(-944.5,-485)" style="transform:matrix(-1, 0, 0, -1, 1889, 970);animation-play-state:paused" ><linearGradient id="lg-0.1980941619915888" x1="0" x2="1" y1="0" y2="0" style="animation-play-state:paused" ><stop stop-color="#0051a2" offset="0" style="animation-play-state:paused" ></stop>

  
<stop stop-color="#1b75be" offset="1" style="animation-play-state:paused" ></stop></linearGradient>
<path d="M 0 0 L 0 638.616 Q 236.125 646.607 472.25 631.422 T 944.5 409.026 T 1416.75 225.246 T 1889 78.9218 L 1889 0 Z" fill="url(#lg-0.1980941619915888)" opacity="0.4" style="opacity:0.4;animation-play-state:paused" ></path>
<path d="M 0 0 L 0 658.053 Q 236.125 522.716 472.25 496.948 T 944.5 402.156 T 1416.75 192.713 T 1889 10.1931 L 1889 0 Z" fill="url(#lg-0.1980941619915888)" opacity="0.4" style="opacity:0.4;animation-play-state:paused" ></path>
<path d="M 0 0 L 0 689.659 Q 236.125 500.106 472.25 463.357 T 944.5 278.273 T 1416.75 145.855 T 1889 -64.68 L 1889 0 Z" fill="url(#lg-0.1980941619915888)" opacity="0.4" style="opacity:0.4;animation-play-state:paused" ></path>
<path d="M 0 0 L 0 616.234 Q 236.125 566.505 472.25 544.386 T 944.5 411.19 T 1416.75 142.672 T 1889 -8.4231 L 1889 0 Z" fill="url(#lg-0.1980941619915888)" opacity="0.4" style="opacity:0.4;animation-play-state:paused" ></path>
<path d="M 0 0 L 0 633.273 Q 236.125 538.317 472.25 513.7 T 944.5 288.61 T 1416.75 160.56 T 1889 87.4578 L 1889 0 Z" fill="url(#lg-0.1980941619915888)" opacity="0.4" style="opacity:0.4;animation-play-state:paused" ></path></g></svg>